<svg width="55" height="78" viewBox="0 0 55 78" xmlns="http://www.w3.org/2000/svg"><title>html5 copy</title><g fill="none" fill-rule="evenodd"><path d="M4.972 71.081L0 15.311h54.638L49.66 71.071l-22.375 6.203-22.313-6.194z" fill="#E45126"/><path d="M27.319 72.534l18.08-5.012 4.253-47.652H27.32v52.664z" fill="#F1682B"/><path d="M27.319 40.555h-9.051l-.626-7.004h9.677v-6.84H10.167l.164 1.835 1.681 18.849h15.307v-6.84zM27.319 58.319l-.03.008-7.618-2.057-.487-5.455h-6.866l.958 10.74 14.011 3.89.032-.01V58.32z" fill="#EBEBEB"/><g fill="#020202"><path d="M5.084.154H8.56v3.434h3.18V.154h3.476v10.4H11.74V7.072H8.56v3.482H5.084V.154zM19.787 3.603h-3.06V.154h9.597v3.449h-3.061v6.951h-3.476V3.603zM27.848.154h3.624l2.23 3.654L35.929.154h3.626v10.4h-3.462V5.399l-2.391 3.698h-.06l-2.393-3.698v5.155h-3.402V.154zM41.285.154h3.477v6.962h4.888v3.438h-8.365V.154z"/></g><path d="M27.295 40.555v6.84h8.423l-.794 8.87-7.629 2.06v7.116l14.023-3.886.102-1.156 1.608-18.007.167-1.837h-15.9zM27.295 26.71v6.841h16.522l.137-1.538.312-3.467.164-1.836H27.295z" fill="#FFF"/></g></svg>