<?xml version="1.0" encoding="UTF-8" standalone="no"?>
<svg width="55px" height="78px" viewBox="0 0 55 78" version="1.1" xmlns="http://www.w3.org/2000/svg" xmlns:xlink="http://www.w3.org/1999/xlink">
    <!-- Generator: Sketch 3.6.1 (26313) - http://www.bohemiancoding.com/sketch -->
    <title>logo-CSS3 Copy</title>
    <desc>Created with Sketch.</desc>
    <defs></defs>
    <g id="Pages" stroke="none" stroke-width="1" fill="none" fill-rule="evenodd">
        <g id="Wide" transform="translate(-1469.000000, -1667.000000)">
            <g id="logo-CSS3-Copy" transform="translate(1469.000000, 1667.000000)">
                <g id="Group" transform="translate(11.572252, 0.000000)" fill="#151515">
                    <path d="M31.3448214,3.00970388 L26.8097845,3.00970388 L31.5259363,8.12702706 L31.5259363,10.5627105 L21.8120413,10.5627105 L21.8120413,7.71097705 L26.5272746,7.71097705 L21.8120413,2.59347019 L21.8120413,0.153929316 L31.3448214,0.153929316 L31.3448214,3.00970388 L31.3448214,3.00970388 Z" id="Shape"></path>
                    <path d="M19.8868227,3.00970388 L15.3517859,3.00970388 L20.067754,8.12702706 L20.067754,10.5627105 L10.3538589,10.5627105 L10.3538589,7.71097705 L15.0694596,7.71097705 L10.3538589,2.59347019 L10.3538589,0.153929316 L19.8868227,0.153929316 L19.8868227,3.00970388 L19.8868227,3.00970388 Z" id="Shape"></path>
                    <path d="M8.54068913,3.12561008 L3.64727984,3.12561008 L3.64727984,7.59158081 L8.54068913,7.59158081 L8.54068913,10.5627105 L0.169542672,10.5627105 L0.169542672,0.153929316 L8.54068913,0.153929316 L8.54068913,3.12561008 Z" id="Shape"></path>
                </g>
                <path d="M5.0734221,71.0855869 L0.101027594,15.3146812 L54.7385874,15.3146812 L49.7612334,71.0765863 L27.3863766,77.2796806 L5.0734221,71.0855869 Z" id="Shape" fill="#1673B6"></path>
                <path d="M27.4199912,72.5385474 L45.4997058,67.5259256 L49.7533349,19.8748831 L27.4199912,19.8748831 L27.4199912,72.5385474 Z" id="Shape" fill="#35A9DB"></path>
                <g id="Group" transform="translate(10.286446, 26.083488)">
                    <path d="M17.1333616,13.996914 L26.1846993,13.996914 L26.8096008,6.99257902 L17.1333616,6.99257902 L17.1333616,0.152276138 L17.1570571,0.152276138 L34.2850918,0.152276138 L34.1212434,1.98748831 L32.4399605,20.8366658 L17.1333616,20.8366658 L17.1333616,13.996914 Z" id="Shape" fill="#FFFFFF"></path>
                    <path d="M17.1743237,31.7606877 L17.1445664,31.769321 L9.52653477,29.7120318 L9.03958176,24.2570928 L5.33811439,24.2570928 L2.17337908,24.2570928 L3.13167174,34.9968771 L17.1427296,38.8866232 L17.1743237,38.8776225 L17.1743237,31.7606877 Z" id="Shape" fill="#EBEBEB"></path>
                    <path d="M25.6033314,20.5469921 L24.7794973,29.7074396 L17.1506281,31.7667494 L17.1506281,38.8831331 L31.1732582,34.9968771 L31.2761226,33.8413051 L32.4658603,20.5469921 L25.6033314,20.5469921 Z" id="Shape" fill="#FFFFFF"></path>
                    <path d="M17.1570571,0.152276138 L17.1570571,4.40057832 L17.1570571,6.97567985 L17.1570571,6.99257902 L0.656863049,6.99257902 L0.656863049,6.99257902 L0.635004352,6.99257902 L0.497974196,5.45512272 L0.186258147,1.98748831 L0.0225934438,0.152276138 L17.1570571,0.152276138 Z" id="Shape" fill="#EBEBEB"></path>
                    <path d="M17.1333616,13.9976487 L17.1333616,18.2461346 L17.1333616,20.8208687 L17.1333616,20.8375842 L9.6338077,20.8375842 L9.6338077,20.8375842 L9.61194901,20.8375842 L9.47491885,19.3004953 L9.1632028,15.8328609 L8.9995381,13.9976487 L17.1333616,13.9976487 Z" id="Shape" fill="#EBEBEB"></path>
                </g>
            </g>
        </g>
    </g>
</svg>