<?xml version="1.0" encoding="UTF-8" standalone="no"?>
<svg width="55px" height="78px" viewBox="0 0 55 78" version="1.1" xmlns="http://www.w3.org/2000/svg" xmlns:xlink="http://www.w3.org/1999/xlink">
    <!-- Generator: Sketch 3.6.1 (26313) - http://www.bohemiancoding.com/sketch -->
    <title>html5 copy</title>
    <desc>Created with Sketch.</desc>
    <defs></defs>
    <g id="Pages" stroke="none" stroke-width="1" fill="none" fill-rule="evenodd">
        <g id="Wide" transform="translate(-1358.000000, -1667.000000)">
            <g id="html5-copy" transform="translate(1358.000000, 1667.000000)">
                <path d="M4.9723945,71.0811785 L0,15.3102727 L54.6375598,15.3102727 L49.6600221,71.0721778 L27.285349,77.2750884 L4.9723945,71.0811785 Z" id="Shape" fill="#E45126"></path>
                <path d="M27.3187799,72.5337716 L45.3984945,67.5215171 L49.6523073,19.8702909 L27.3187799,19.8702909 L27.3187799,72.5337716 Z" id="Shape" fill="#F1682B"></path>
                <path d="M27.3187799,40.555048 L18.2676259,40.555048 L17.6423569,33.550713 L27.3187799,33.550713 L27.3187799,26.7104101 L27.2950844,26.7104101 L10.1670497,26.7104101 L10.3308981,28.5456223 L12.0119973,47.3947998 L27.3187799,47.3947998 L27.3187799,40.555048 Z" id="Shape" fill="#EBEBEB"></path>
                <path d="M27.3187799,58.3188217 L27.288839,58.327455 L19.670991,56.2701658 L19.1838543,50.8152267 L15.482387,50.8152267 L12.3176517,50.8152267 L13.2759443,61.5548274 L27.2871858,65.4445734 L27.3187799,65.4355728 L27.3187799,58.3188217 Z" id="Shape" fill="#EBEBEB"></path>
                <g id="Group" transform="translate(4.959536, 0.000000)" fill="#020202">
                    <path d="M0.123988411,0.153929316 L3.6000724,0.153929316 L3.6000724,3.58813278 L6.77987001,3.58813278 L6.77987001,0.153929316 L10.2561377,0.153929316 L10.2561377,10.5538936 L6.78005369,10.5538936 L6.78005369,7.07156423 L3.60043977,7.07156423 L3.60043977,10.5538936 L0.123988411,10.5538936 L0.123988411,0.153929316 L0.123988411,0.153929316 L0.123988411,0.153929316 Z" id="Shape"></path>
                    <path d="M14.8269934,3.6028277 L11.7667757,3.6028277 L11.7667757,0.154113003 L21.3647646,0.154113003 L21.3647646,3.6028277 L18.3032611,3.6028277 L18.3032611,10.5540772 L14.8271771,10.5540772 L14.8269934,3.6028277 L14.8269934,3.6028277 L14.8269934,3.6028277 Z" id="Shape"></path>
                    <path d="M22.888077,0.153929316 L26.5127634,0.153929316 L28.7421669,3.80818924 L30.9697335,0.153929316 L34.595522,0.153929316 L34.595522,10.5538936 L31.1337656,10.5538936 L31.1337656,5.39909832 L28.7419832,9.09670827 L28.6822851,9.09670827 L26.2892169,5.39909832 L26.2892169,10.5538936 L22.8878933,10.5538936 L22.888077,0.153929316 L22.888077,0.153929316 L22.888077,0.153929316 Z" id="Shape"></path>
                    <path d="M36.3254818,0.153929316 L39.8024842,0.153929316 L39.8024842,7.11620005 L44.6907503,7.11620005 L44.6907503,10.5537099 L36.3252981,10.5537099 L36.3254818,0.153929316 L36.3254818,0.153929316 L36.3254818,0.153929316 Z" id="Shape"></path>
                </g>
                <path d="M27.2950844,40.555048 L27.2950844,47.3947998 L35.7178467,47.3947998 L34.9239535,56.2653899 L27.2950844,58.3248834 L27.2950844,65.4414508 L41.3177144,61.5548274 L41.4203952,60.3992554 L43.0278361,42.3917296 L43.1946235,40.555048 L41.3515128,40.555048 L27.2950844,40.555048 Z" id="Shape" fill="#FFFFFF"></path>
                <path d="M27.2950844,26.7104101 L27.2950844,30.9587123 L27.2950844,33.5338138 L27.2950844,33.550713 L43.7950947,33.550713 L43.7950947,33.550713 L43.8171371,33.550713 L43.954351,32.0132567 L44.2658833,28.5456223 L44.429548,26.7104101 L27.2950844,26.7104101 Z" id="Shape" fill="#FFFFFF"></path>
            </g>
        </g>
    </g>
</svg>