<?xml version="1.0" encoding="UTF-8" standalone="no"?>
<svg width="63px" height="61px" viewBox="0 0 63 61" version="1.1" xmlns="http://www.w3.org/2000/svg" xmlns:xlink="http://www.w3.org/1999/xlink">
    <!-- Generator: Sketch 3.6.1 (26313) - http://www.bohemiancoding.com/sketch -->
    <title>Group 2 Copy</title>
    <desc>Created with Sketch.</desc>
    <defs>
        <linearGradient x1="0.737653307%" y1="-0.758934868%" x2="99.2632364%" y2="100.759852%" id="linearGradient-1">
            <stop stop-color="#5E4421" offset="0%"></stop>
            <stop stop-color="#373100" offset="100%"></stop>
        </linearGradient>
        <linearGradient x1="-1.97756522%" y1="49.9992362%" x2="128.533217%" y2="49.9992362%" id="linearGradient-2">
            <stop stop-color="#FDC45E" offset="0%"></stop>
            <stop stop-color="#FC9C0D" offset="100%"></stop>
        </linearGradient>
        <linearGradient x1="-467.190927%" y1="50.0001492%" x2="92.7299858%" y2="50.0001492%" id="linearGradient-3">
            <stop stop-color="#FDC45E" offset="0%"></stop>
            <stop stop-color="#FC9C0D" offset="100%"></stop>
        </linearGradient>
    </defs>
    <g id="Page-1" stroke="none" stroke-width="1" fill="none" fill-rule="evenodd">
        <g id="Group-2-Copy">
            <rect id="Rectangle-path" fill="url(#linearGradient-1)" opacity="0.95" x="0.881596091" y="0.2478125" width="61.8715309" height="60.06975"></rect>
            <g id="Group" transform="translate(14.726384, 15.673611)">
                <g opacity="0.1" transform="translate(0.000000, 0.423611)" id="Shape" fill="#000000">
                    <path d="M7.92491857,20.0978056 L5.53918567,27.9566389 L0.315895765,27.9566389 L9.1995114,0.225361111 L15.6567427,0.225361111 L24.66443,27.9566389 L19.2357655,27.9566389 L16.7263844,20.0978056 L7.92491857,20.0978056 L7.92491857,20.0978056 Z M15.8629642,16.27175 L13.6826059,9.44144444 C13.1486319,7.754625 12.6955375,5.86193056 12.2847883,4.25729167 L12.2026384,4.25729167 C11.7910423,5.86193056 11.3798697,7.79571528 10.8861238,9.44144444 L8.7476873,16.27175 L15.8629642,16.27175 L15.8629642,16.27175 Z"></path>
                </g>
                <path d="M7.92491857,19.9601319 L5.53918567,27.8189653 L0.315895765,27.8189653 L9.1995114,0.0876875 L15.6567427,0.0876875 L24.66443,27.8189653 L19.2357655,27.8189653 L16.7263844,19.9601319 L7.92491857,19.9601319 L7.92491857,19.9601319 Z M15.8629642,16.1340764 L13.6826059,9.30377083 C13.1486319,7.61695139 12.6955375,5.72425694 12.2847883,4.11961806 L12.2026384,4.11961806 C11.7910423,5.72425694 11.3798697,7.65804167 10.8861238,9.30377083 L8.7476873,16.1340764 L15.8629642,16.1340764 L15.8629642,16.1340764 Z" id="Shape" fill="url(#linearGradient-2)"></path>
            </g>
            <g id="Group" transform="translate(40.980456, 14.826389)">
                <g opacity="0.1" transform="translate(0.000000, 0.423611)" id="Shape" fill="#000000">
                    <path d="M5.77081433,3.17072917 C5.77081433,4.6931875 4.66009772,5.88607639 2.89175896,5.88607639 C1.20557003,5.88607639 0.095276873,4.6931875 0.095276873,3.17072917 C0.095276873,1.60718056 1.24664495,0.413868056 2.93283388,0.413868056 C4.66009772,0.413868056 5.72931596,1.60718056 5.77081433,3.17072917 L5.77081433,3.17072917 Z M0.38237785,28.8038611 L0.38237785,8.76663194 L5.48286645,8.76663194 L5.48286645,28.8038611 L0.38237785,28.8038611 L0.38237785,28.8038611 Z"></path>
                </g>
                <path d="M5.77081433,3.03305556 C5.77081433,4.55551389 4.66009772,5.74840278 2.89175896,5.74840278 C1.20557003,5.74840278 0.095276873,4.55551389 0.095276873,3.03305556 C0.095276873,1.46950694 1.24664495,0.276194444 2.93283388,0.276194444 C4.66009772,0.276194444 5.72931596,1.46950694 5.77081433,3.03305556 L5.77081433,3.03305556 Z M0.38237785,28.6657639 L0.38237785,8.62853472 L5.48286645,8.62853472 L5.48286645,28.6657639 L0.38237785,28.6657639 L0.38237785,28.6657639 Z" id="Shape" fill="url(#linearGradient-3)"></path>
            </g>
        </g>
    </g>
</svg>