<?xml version="1.0" encoding="UTF-8" standalone="no"?>
<svg width="95px" height="67px" viewBox="0 0 95 67" version="1.1" xmlns="http://www.w3.org/2000/svg" xmlns:xlink="http://www.w3.org/1999/xlink">
    <!-- Generator: Sketch 3.6.1 (26313) - http://www.bohemiancoding.com/sketch -->
    <title>Artboard</title>
    <desc>Created with Sketch.</desc>
    <defs></defs>
    <g id="Page-1" stroke="none" stroke-width="1" fill="none" fill-rule="evenodd">
        <g id="Artboard" fill="#F0EFEA">
            <path d="M37.376,44.576 C37.376,54.146 31.106,59.426 22.592,59.426 C14.078,59.426 7.676,53.354 7.676,44.576 L4.376,44.576 C4.376,55.334 12.098,62.726 22.592,62.726 C33.086,62.726 40.874,55.928 40.874,44.576 L40.874,15.8 L19.688,15.8 L19.688,18.902 L37.376,18.902 L37.376,44.576 Z M85.556,15.8 L68.462,58.04 L51.368,15.8 L47.54,15.8 L66.548,62.132 L70.376,62.132 L89.384,15.8 L85.556,15.8 Z" id="JV-Copy-5"></path>
            <rect id="Rectangle-1" x="21" y="4" width="66" height="3"></rect>
        </g>
    </g>
</svg>