<?xml version="1.0" encoding="UTF-8" standalone="no"?>
<svg width="63px" height="61px" viewBox="0 0 63 61" version="1.1" xmlns="http://www.w3.org/2000/svg" xmlns:xlink="http://www.w3.org/1999/xlink">
    <!-- Generator: Sketch 3.6.1 (26313) - http://www.bohemiancoding.com/sketch -->
    <title>Group 3 Copy</title>
    <desc>Created with Sketch.</desc>
    <defs>
        <linearGradient x1="0.737379544%" y1="-0.759352632%" x2="99.2633733%" y2="100.759141%" id="linearGradient-1">
            <stop stop-color="#32297C" offset="0%"></stop>
            <stop stop-color="#282761" offset="100%"></stop>
        </linearGradient>
        <linearGradient x1="-0.955021705%" y1="49.9989386%" x2="178.262006%" y2="49.9989386%" id="linearGradient-2">
            <stop stop-color="#95C8FD" offset="0%"></stop>
            <stop stop-color="#73B4F4" offset="100%"></stop>
        </linearGradient>
        <linearGradient x1="-136.211391%" y1="50%" x2="98.4353984%" y2="50%" id="linearGradient-3">
            <stop stop-color="#95C8FD" offset="0%"></stop>
            <stop stop-color="#73B4F4" offset="100%"></stop>
        </linearGradient>
    </defs>
    <g id="Page-1" stroke="none" stroke-width="1" fill="none" fill-rule="evenodd">
        <g id="Group-3-Copy">
            <rect id="Rectangle-path" fill="url(#linearGradient-1)" opacity="0.95" x="0.234169381" y="0.656173611" width="61.8715309" height="60.0701736"></rect>
            <g id="Group" transform="translate(14.820847, 15.673611)">
                <g opacity="0.1" transform="translate(0.000000, 0.423611)" id="Shape" fill="#000000">
                    <path d="M0.375602606,0.931097222 C2.18543974,0.601951389 4.69439739,0.354986111 8.10785016,0.354986111 C11.8096743,0.354986111 14.5240065,1.13654861 16.2923453,2.61791667 C17.9374593,3.97559028 19.007101,6.15634028 19.007101,8.74841667 C19.007101,11.3815833 18.1851792,13.5623333 16.6217915,15.0437014 C14.6065798,17.0596667 11.4395765,18.0060139 7.86140065,18.0060139 C6.91540717,18.0060139 6.05198697,17.9649236 5.39351792,17.8412292 L5.39351792,28.2921389 L0.375602606,28.2921389 L0.375602606,0.931097222 L0.375602606,0.931097222 Z M5.39309446,13.8503889 C6.0104886,14.0151736 6.83283388,14.0558403 7.8609772,14.0558403 C11.6449511,14.0558403 13.9481107,12.2042361 13.9481107,8.95386806 C13.9481107,5.86786111 11.8092508,4.22255556 8.3128013,4.22255556 C6.91498371,4.22255556 5.92791531,4.34582639 5.39267101,4.46952083 L5.39267101,13.8503889 L5.39309446,13.8503889 Z"></path>
                </g>
                <path d="M0.375602606,0.793423611 C2.18543974,0.464277778 4.69439739,0.2173125 8.10785016,0.2173125 C11.8096743,0.2173125 14.5240065,0.998875 16.2923453,2.48024306 C17.9374593,3.83791667 19.007101,6.01866667 19.007101,8.61074306 C19.007101,11.2439097 18.1851792,13.4246597 16.6217915,14.9060278 C14.6065798,16.9219931 11.4395765,17.8683403 7.86140065,17.8683403 C6.91540717,17.8683403 6.05198697,17.82725 5.39351792,17.7035556 L5.39351792,28.1544653 L0.375602606,28.1544653 L0.375602606,0.793423611 L0.375602606,0.793423611 Z M5.39309446,13.7127153 C6.0104886,13.8775 6.83283388,13.9181667 7.8609772,13.9181667 C11.6449511,13.9181667 13.9481107,12.0665625 13.9481107,8.81619444 C13.9481107,5.7301875 11.8092508,4.08488194 8.3128013,4.08488194 C6.91498371,4.08488194 5.92791531,4.20815278 5.39267101,4.33184722 L5.39267101,13.7127153 L5.39309446,13.7127153 Z" id="Shape" fill="url(#linearGradient-2)"></path>
            </g>
            <g id="Group" transform="translate(34.299674, 23.298611)">
                <g opacity="0.1" transform="translate(0.000000, 0.423611)" id="Shape" fill="#000000">
                    <path d="M1.08912052,16.0175833 C2.24091205,16.7173889 4.42127036,17.4570139 6.23068404,17.4570139 C8.45169381,17.4570139 9.43791531,16.5521806 9.43791531,15.2355972 C9.43791531,13.8775 8.61599349,13.1781181 6.1485342,12.3139514 C2.24091205,10.9562778 0.595798046,8.81661806 0.636449511,6.47193056 C0.636449511,2.93350694 3.55700326,0.176645833 8.20482085,0.176645833 C10.4254072,0.176645833 12.3588925,0.752756944 13.5098371,1.36995833 L12.5231922,4.94947222 C11.6593485,4.45554167 10.054886,3.79767361 8.28697068,3.79767361 C6.477557,3.79767361 5.49006515,4.66184028 5.49006515,5.89581944 C5.49006515,7.17173611 6.43605863,7.78851389 8.98651466,8.69377083 C12.605342,10.0103542 14.2915309,11.8619583 14.3330293,14.8238472 C14.3330293,18.4444514 11.4954723,21.1195556 6.18918567,21.1195556 C3.76237785,21.1195556 1.582443,20.5019306 0.10247557,19.6792778 L1.08912052,16.0175833 L1.08912052,16.0175833 Z"></path>
                </g>
                <path d="M1.08912052,15.8799097 C2.24091205,16.5797153 4.42127036,17.3193403 6.23068404,17.3193403 C8.45169381,17.3193403 9.43791531,16.4145069 9.43791531,15.0979236 C9.43791531,13.7398264 8.61599349,13.0404444 6.1485342,12.1762778 C2.24091205,10.8186042 0.595798046,8.67894444 0.636449511,6.33425694 C0.636449511,2.79583333 3.55700326,0.0389722222 8.20482085,0.0389722222 C10.4254072,0.0389722222 12.3588925,0.615083333 13.5098371,1.23228472 L12.5231922,4.81179861 C11.6593485,4.31786806 10.054886,3.66 8.28697068,3.66 C6.477557,3.66 5.49006515,4.52416667 5.49006515,5.75814583 C5.49006515,7.0340625 6.43605863,7.65084028 8.98651466,8.55609722 C12.605342,9.87268056 14.2915309,11.7242847 14.3330293,14.6861736 C14.3330293,18.3067778 11.4954723,20.9818819 6.18918567,20.9818819 C3.76237785,20.9818819 1.582443,20.3642569 0.10247557,19.5416042 L1.08912052,15.8799097 L1.08912052,15.8799097 Z" id="Shape" fill="url(#linearGradient-3)"></path>
            </g>
        </g>
    </g>
</svg>