<svg width="55" height="78" viewBox="0 0 55 78" xmlns="http://www.w3.org/2000/svg"><title>logo-CSS3 Copy</title><g fill="none" fill-rule="evenodd"><g fill="#151515"><path d="M42.917 3.01h-4.535l4.716 5.117v2.436h-9.714V7.71H38.1l-4.716-5.118V.153h9.533V3.01zM31.46 3.01h-4.536l4.716 5.117v2.436h-9.714V7.71h4.716l-4.716-5.118V.153h9.533V3.01zM20.113 3.126H15.22v4.466h4.893v2.97h-8.371V.155h8.37v2.972z"/></g><path d="M5.073 71.086L.101 15.315h54.638L49.76 71.077 27.386 77.28 5.073 71.086z" fill="#1673B6"/><path d="M27.42 72.539l18.08-5.013 4.253-47.651H27.42v52.664z" fill="#35A9DB"/><path d="M27.42 40.08h9.051l.625-7.004H27.42v-6.84h17.152l-.164 1.835-1.682 18.85H27.42v-6.84z" fill="#FFF"/><path d="M27.46 57.844l-.029.009-7.618-2.057-.487-5.455H12.46l.958 10.74 14.011 3.89.032-.01v-7.117z" fill="#EBEBEB"/><path d="M35.89 46.63l-.824 9.16-7.629 2.06v7.117L41.46 61.08l.103-1.155 1.19-13.295H35.89z" fill="#FFF"/><path d="M27.444 26.236V33.076H10.92l-.137-1.537-.311-3.468-.164-1.835h17.135zM27.42 40.081v6.84h-7.522l-.137-1.537-.311-3.468-.164-1.835h8.134z" fill="#EBEBEB"/></g></svg>