<svg width="63" height="61" viewBox="0 0 63 61" xmlns="http://www.w3.org/2000/svg"><title>Group 2 Copy</title><defs><linearGradient x1=".738%" y1="-.759%" x2="99.263%" y2="100.76%" id="a"><stop stop-color="#5E4421" offset="0%"/><stop stop-color="#373100" offset="100%"/></linearGradient><linearGradient x1="-1.978%" y1="49.999%" x2="128.533%" y2="49.999%" id="b"><stop stop-color="#FDC45E" offset="0%"/><stop stop-color="#FC9C0D" offset="100%"/></linearGradient><linearGradient x1="-467.191%" y1="50%" x2="92.73%" y2="50%" id="c"><stop stop-color="#FDC45E" offset="0%"/><stop stop-color="#FC9C0D" offset="100%"/></linearGradient></defs><g fill="none" fill-rule="evenodd"><path fill="url(#a)" opacity=".95" d="M.882.248h61.872v60.07H.882z"/><path d="M22.651 36.195l-2.385 7.859h-5.224l8.884-27.731h6.457l9.008 27.73h-5.429l-2.51-7.858h-8.8zm7.938-3.826l-2.18-6.83c-.534-1.687-.987-3.58-1.398-5.184h-.082c-.412 1.604-.823 3.538-1.316 5.184l-2.139 6.83h7.115z" opacity=".1" fill="#000"/><path d="M7.925 19.96L5.539 27.82H.316L9.2.088h6.457l9.007 27.731h-5.428l-2.51-7.859H7.925zm7.938-3.826l-2.18-6.83c-.534-1.687-.987-3.58-1.398-5.184h-.082c-.412 1.604-.823 3.538-1.317 5.184l-2.138 6.83h7.115z" fill="url(#b)" transform="translate(14.726 15.674)"/><g><path d="M46.751 18.42c0 1.523-1.11 2.716-2.879 2.716-1.686 0-2.796-1.193-2.796-2.715 0-1.564 1.151-2.757 2.837-2.757 1.728 0 2.797 1.193 2.838 2.757zm-5.388 25.634V24.017h5.1v20.037h-5.1z" opacity=".1" fill="#000"/><path d="M5.77 3.033c0 1.523-1.11 2.715-2.878 2.715-1.686 0-2.797-1.192-2.797-2.715C.095 1.47 1.247.276 2.933.276 4.66.276 5.729 1.47 5.77 3.033zM.383 28.666V8.629h5.1v20.037h-5.1z" fill="url(#c)" transform="translate(40.98 14.826)"/></g></g></svg>