<svg width="63" height="61" viewBox="0 0 63 61" xmlns="http://www.w3.org/2000/svg"><title>Group 3 Copy</title><defs><linearGradient x1=".737%" y1="-.759%" x2="99.263%" y2="100.759%" id="a"><stop stop-color="#32297C" offset="0%"/><stop stop-color="#282761" offset="100%"/></linearGradient><linearGradient x1="-.955%" y1="49.999%" x2="178.262%" y2="49.999%" id="b"><stop stop-color="#95C8FD" offset="0%"/><stop stop-color="#73B4F4" offset="100%"/></linearGradient><linearGradient x1="-136.211%" y1="50%" x2="98.435%" y2="50%" id="c"><stop stop-color="#95C8FD" offset="0%"/><stop stop-color="#73B4F4" offset="100%"/></linearGradient></defs><g fill="none" fill-rule="evenodd"><path fill="url(#a)" opacity=".95" d="M.234.656h61.872v60.07H.234z"/><path d="M15.196 17.028c1.81-.329 4.32-.576 7.733-.576 3.702 0 6.416.782 8.184 2.263 1.645 1.358 2.715 3.539 2.715 6.13 0 2.634-.822 4.815-2.385 6.296-2.016 2.016-5.183 2.962-8.76 2.962-.947 0-1.81-.04-2.469-.165V44.39h-5.018V17.03zm5.018 12.92c.617.164 1.44.205 2.468.205 3.784 0 6.087-1.852 6.087-5.102 0-3.086-2.139-4.731-5.635-4.731-1.398 0-2.385.123-2.92.247v9.38z" opacity=".1" fill="#000"/><path d="M.376.793C2.186.464 4.694.217 8.108.217c3.702 0 6.416.782 8.184 2.263 1.645 1.358 2.715 3.539 2.715 6.13 0 2.634-.822 4.815-2.385 6.296-2.015 2.016-5.182 2.962-8.76 2.962-.947 0-1.81-.04-2.468-.164v10.45H.376V.794zm5.017 12.92c.617.165 1.44.205 2.468.205 3.784 0 6.087-1.851 6.087-5.102 0-3.086-2.139-4.731-5.635-4.731-1.398 0-2.385.123-2.92.247v9.38z" fill="url(#b)" transform="translate(14.82 15.674)"/><g><path d="M35.389 39.74c1.152.7 3.332 1.44 5.141 1.44 2.221 0 3.208-.906 3.208-2.222 0-1.358-.822-2.058-3.29-2.922-3.907-1.358-5.553-3.497-5.512-5.842 0-3.538 2.92-6.295 7.568-6.295 2.221 0 4.155.576 5.306 1.193l-.987 3.58c-.864-.494-2.468-1.152-4.236-1.152-1.81 0-2.797.864-2.797 2.098 0 1.276.946 1.893 3.496 2.798 3.619 1.317 5.305 3.168 5.347 6.13 0 3.62-2.838 6.296-8.144 6.296-2.427 0-4.607-.618-6.087-1.44l.987-3.662z" opacity=".1" fill="#000"/><path d="M1.09 15.88c1.15.7 3.331 1.44 5.14 1.44 2.222 0 3.208-.905 3.208-2.222 0-1.358-.822-2.058-3.29-2.922C2.242 10.82.597 8.68.637 6.334.636 2.796 3.557.04 8.205.04c2.22 0 4.154.576 5.305 1.193l-.987 3.58c-.864-.494-2.468-1.152-4.236-1.152-1.81 0-2.797.864-2.797 2.098 0 1.276.946 1.893 3.497 2.798 3.618 1.317 5.305 3.168 5.346 6.13 0 3.62-2.838 6.296-8.144 6.296-2.427 0-4.607-.618-6.087-1.44l.987-3.662z" fill="url(#c)" transform="translate(34.3 23.299)"/></g></g></svg>